<mxfile host="app.diagrams.net" modified="2022-11-23T20:21:58.485Z" agent="5.0 (Windows NT 10.0; Win64; x64) AppleWebKit/537.36 (KHTML, like Gecko) Chrome/107.0.0.0 Safari/537.36" etag="3HIHh1CcFt4cmSqCgVg-" version="20.6.0" type="github">
  <diagram id="6a731a19-8d31-9384-78a2-239565b7b9f0" name="Page-1">
    <mxGraphModel dx="1768" dy="2597" grid="1" gridSize="10" guides="1" tooltips="1" connect="1" arrows="1" fold="1" page="1" pageScale="1" pageWidth="827" pageHeight="1169" background="#95B3D7" math="0" shadow="0">
      <root>
        <mxCell id="0" />
        <mxCell id="1" parent="0" />
        <mxCell id="R70TE0VwY-J-NcMuHkIn-1052" value="" style="ellipse;whiteSpace=wrap;html=1;fontFamily=Verdana;fontSize=16;fontColor=#DDDDDD;strokeColor=none;fillColor=#1F497D;" vertex="1" parent="1">
          <mxGeometry x="868" y="-450" width="350" height="350" as="geometry" />
        </mxCell>
        <mxCell id="R70TE0VwY-J-NcMuHkIn-1053" value="" style="ellipse;whiteSpace=wrap;html=1;fontFamily=Verdana;fontSize=16;fontColor=#DDDDDD;strokeColor=none;fillColor=#1F497D;" vertex="1" parent="1">
          <mxGeometry x="1195" y="-203" width="350" height="350" as="geometry" />
        </mxCell>
        <mxCell id="R70TE0VwY-J-NcMuHkIn-1054" value="COMMUNITY &lt;br&gt;CONTRIBUTIONS" style="text;resizable=1;points=[];autosize=1;align=left;verticalAlign=top;spacingTop=-4;fontSize=24;fontFamily=Verdana;fontColor=#9BBB59;fontStyle=1;html=1;overflow=fill;strokeOpacity=100;" vertex="1" parent="1">
          <mxGeometry x="921" y="-335" width="250" height="70" as="geometry" />
        </mxCell>
        <mxCell id="R70TE0VwY-J-NcMuHkIn-1055" value="&lt;font color=&quot;#eeece1&quot;&gt;1&amp;nbsp;&lt;/font&gt;" style="text;html=1;resizable=0;points=[];autosize=1;align=left;verticalAlign=top;spacingTop=-4;fontSize=100;fontFamily=Verdana;fontColor=#F18808;fontStyle=1" vertex="1" parent="1">
          <mxGeometry x="845" y="-412" width="130" height="130" as="geometry" />
        </mxCell>
        <mxCell id="R70TE0VwY-J-NcMuHkIn-1056" value="&lt;font color=&quot;#eeece1&quot;&gt;2&lt;/font&gt;" style="text;html=1;resizable=0;points=[];autosize=1;align=left;verticalAlign=top;spacingTop=-4;fontSize=100;fontFamily=Verdana;fontColor=#F18808;fontStyle=1" vertex="1" parent="1">
          <mxGeometry x="1166" y="-190" width="90" height="130" as="geometry" />
        </mxCell>
        <mxCell id="R70TE0VwY-J-NcMuHkIn-1057" value="&lt;div style=&quot;line-height: 120%&quot;&gt;&lt;font color=&quot;#eeece1&quot; style=&quot;line-height: 120%&quot;&gt;&lt;div&gt;This code needs to be tested.&lt;/div&gt;&lt;/font&gt;&lt;/div&gt;" style="text;resizable=0;points=[];autosize=1;align=left;verticalAlign=top;spacingTop=-4;fontSize=16;fontFamily=Verdana;fontColor=#888888;html=1;" vertex="1" parent="1">
          <mxGeometry x="921" y="-220" width="260" height="30" as="geometry" />
        </mxCell>
        <mxCell id="R70TE0VwY-J-NcMuHkIn-1058" value="&lt;div style=&quot;line-height: 150%&quot;&gt;&lt;font color=&quot;#9bbb59&quot;&gt;AUTOMATED CI&lt;/font&gt;&lt;/div&gt;&lt;div style=&quot;line-height: 150%&quot;&gt;&lt;font color=&quot;#9bbb59&quot;&gt;TESTING TRIGGERS&lt;/font&gt;&lt;/div&gt;" style="text;html=1;resizable=0;points=[];autosize=1;align=left;verticalAlign=top;spacingTop=-4;fontSize=24;fontFamily=Verdana;fontColor=#DDDDDD;fontStyle=1" vertex="1" parent="1">
          <mxGeometry x="1247" y="-117" width="290" height="80" as="geometry" />
        </mxCell>
        <mxCell id="R70TE0VwY-J-NcMuHkIn-1059" value="&lt;font color=&quot;#eeece1&quot;&gt;Pull Request is made to the &lt;br&gt;GitHub repository.&lt;br&gt;&lt;/font&gt;" style="text;html=1;resizable=0;points=[];autosize=1;align=left;verticalAlign=top;spacingTop=-4;fontSize=16;fontColor=#888888;fontFamily=Verdana;" vertex="1" parent="1">
          <mxGeometry x="921" y="-270" width="240" height="50" as="geometry" />
        </mxCell>
        <mxCell id="R70TE0VwY-J-NcMuHkIn-1060" value="&lt;font color=&quot;#eeece1&quot;&gt;GitHub actions spin up the NOAA &lt;br&gt;Cloud clusters for CI testing.&lt;br&gt;&lt;/font&gt;" style="text;html=1;resizable=0;points=[];autosize=1;align=left;verticalAlign=top;spacingTop=-4;fontSize=16;fontColor=#888888;fontFamily=Verdana;" vertex="1" parent="1">
          <mxGeometry x="1247" y="-34" width="290" height="50" as="geometry" />
        </mxCell>
        <mxCell id="R70TE0VwY-J-NcMuHkIn-1061" value="&lt;div style=&quot;line-height: 120%&quot;&gt;&lt;font color=&quot;#eeece1&quot; style=&quot;line-height: 120%&quot;&gt;GitHub actions run test scripts&lt;/font&gt;&lt;/div&gt;&lt;div style=&quot;line-height: 120%&quot;&gt;&lt;font color=&quot;#eeece1&quot; style=&quot;line-height: 120%&quot;&gt;on the NOAA cloud clusters.&lt;/font&gt;&lt;/div&gt;" style="text;resizable=0;points=[];autosize=1;align=left;verticalAlign=top;spacingTop=-4;fontSize=16;fontFamily=Verdana;fontColor=#888888;html=1;" vertex="1" parent="1">
          <mxGeometry x="1247" y="14" width="270" height="50" as="geometry" />
        </mxCell>
        <mxCell id="R70TE0VwY-J-NcMuHkIn-1062" value="" style="endArrow=oval;html=1;strokeColor=#EEECE1;fontFamily=Verdana;fontSize=16;fontColor=#DDDDDD;endFill=1;rounded=1;endSize=6;startArrow=oval;startFill=1;strokeWidth=2;movable=1;resizable=1;rotatable=1;deletable=1;editable=1;connectable=1;" edge="1" parent="1">
          <mxGeometry width="50" height="50" relative="1" as="geometry">
            <mxPoint x="1141" y="-4" as="sourcePoint" />
            <mxPoint x="1218" y="-283" as="targetPoint" />
            <Array as="points">
              <mxPoint x="1054" y="-4" />
              <mxPoint x="1054" y="-194" />
              <mxPoint x="1218" y="-194" />
            </Array>
          </mxGeometry>
        </mxCell>
        <mxCell id="R70TE0VwY-J-NcMuHkIn-1063" value="" style="endArrow=oval;html=1;strokeColor=#EEECE1;fontFamily=Verdana;fontSize=16;fontColor=#DDDDDD;endFill=0;rounded=1;endSize=6;startArrow=oval;startFill=0;dashed=1;strokeWidth=2;dashPattern=1 1;" edge="1" parent="1">
          <mxGeometry x="1064" y="-273" width="50" height="50" as="geometry">
            <mxPoint x="1063" y="-58" as="sourcePoint" />
            <mxPoint x="1063" y="-132" as="targetPoint" />
          </mxGeometry>
        </mxCell>
        <mxCell id="R70TE0VwY-J-NcMuHkIn-1064" value="" style="endArrow=none;html=1;strokeColor=#EEECE1;fontFamily=Verdana;fontSize=16;fontColor=#DDDDDD;endFill=0;rounded=1;endSize=6;startArrow=none;startFill=0;strokeWidth=2;dashed=1;dashPattern=1 1;" edge="1" parent="1">
          <mxGeometry x="1031" y="-277" width="50" height="50" as="geometry">
            <mxPoint x="1081" y="-185" as="sourcePoint" />
            <mxPoint x="1226" y="-207" as="targetPoint" />
            <Array as="points">
              <mxPoint x="1099" y="-185" />
              <mxPoint x="1146" y="-185" />
              <mxPoint x="1226" y="-185" />
            </Array>
          </mxGeometry>
        </mxCell>
        <mxCell id="R70TE0VwY-J-NcMuHkIn-1065" value="" style="group" vertex="1" connectable="0" parent="1">
          <mxGeometry x="1184" y="-363" width="106" height="110" as="geometry" />
        </mxCell>
        <mxCell id="R70TE0VwY-J-NcMuHkIn-1066" value="" style="ellipse;whiteSpace=wrap;html=1;fillColor=none;fontFamily=Verdana;fontSize=16;fontColor=#DDDDDD;strokeColor=#EEECE1;strokeWidth=2;" vertex="1" parent="R70TE0VwY-J-NcMuHkIn-1065">
          <mxGeometry width="66" height="66" as="geometry" />
        </mxCell>
        <mxCell id="R70TE0VwY-J-NcMuHkIn-1067" value="" style="ellipse;whiteSpace=wrap;html=1;fillColor=#EEECE1;fontFamily=Verdana;fontSize=16;fontColor=#DDDDDD;strokeColor=none;" vertex="1" parent="R70TE0VwY-J-NcMuHkIn-1065">
          <mxGeometry x="4" y="4" width="58" height="58" as="geometry" />
        </mxCell>
        <mxCell id="R70TE0VwY-J-NcMuHkIn-1068" value="" style="verticalLabelPosition=bottom;sketch=0;html=1;fillColor=#000000;strokeColor=none;verticalAlign=top;pointerEvents=1;align=center;shape=mxgraph.cisco_safe.people_places_things_icons.icon9;aspect=fixed;" vertex="1" parent="R70TE0VwY-J-NcMuHkIn-1065">
          <mxGeometry x="11.06" y="13.25" width="43.89" height="39.5" as="geometry" />
        </mxCell>
        <mxCell id="R70TE0VwY-J-NcMuHkIn-1069" value="" style="group" vertex="1" connectable="0" parent="1">
          <mxGeometry x="1155" y="-38" width="66" height="66" as="geometry" />
        </mxCell>
        <mxCell id="R70TE0VwY-J-NcMuHkIn-1070" value="" style="ellipse;whiteSpace=wrap;html=1;fillColor=none;fontFamily=Verdana;fontSize=16;fontColor=#DDDDDD;strokeColor=#EEECE1;strokeWidth=2;" vertex="1" parent="R70TE0VwY-J-NcMuHkIn-1069">
          <mxGeometry width="66" height="66" as="geometry" />
        </mxCell>
        <mxCell id="R70TE0VwY-J-NcMuHkIn-1071" value="" style="ellipse;whiteSpace=wrap;html=1;fillColor=#EEECE1;fontFamily=Verdana;fontSize=16;fontColor=#DDDDDD;strokeColor=none;" vertex="1" parent="R70TE0VwY-J-NcMuHkIn-1069">
          <mxGeometry x="4" y="4" width="58" height="58" as="geometry" />
        </mxCell>
        <mxCell id="R70TE0VwY-J-NcMuHkIn-1072" value="" style="verticalLabelPosition=bottom;html=1;verticalAlign=top;align=center;strokeColor=none;fillColor=#1A1A1A;shape=mxgraph.azure.cloud;aspect=fixed;" vertex="1" parent="R70TE0VwY-J-NcMuHkIn-1069">
          <mxGeometry x="6" y="16.38" width="51.15" height="33.25" as="geometry" />
        </mxCell>
        <mxCell id="R70TE0VwY-J-NcMuHkIn-1098" value="" style="ellipse;whiteSpace=wrap;html=1;fontFamily=Verdana;fontSize=16;fontColor=#DDDDDD;strokeColor=none;fillColor=#1F497D;" vertex="1" parent="1">
          <mxGeometry x="1506" y="-450" width="350" height="350" as="geometry" />
        </mxCell>
        <mxCell id="R70TE0VwY-J-NcMuHkIn-1099" value="" style="ellipse;whiteSpace=wrap;html=1;fontFamily=Verdana;fontSize=16;fontColor=#DDDDDD;strokeColor=none;fillColor=#1F497D;" vertex="1" parent="1">
          <mxGeometry x="1833" y="-203" width="350" height="350" as="geometry" />
        </mxCell>
        <mxCell id="R70TE0VwY-J-NcMuHkIn-1100" value="&lt;font color=&quot;#eeece1&quot;&gt;3&lt;/font&gt;" style="text;html=1;resizable=0;points=[];autosize=1;align=left;verticalAlign=top;spacingTop=-4;fontSize=100;fontFamily=Verdana;fontColor=#F18808;fontStyle=1" vertex="1" parent="1">
          <mxGeometry x="1485" y="-415" width="90" height="130" as="geometry" />
        </mxCell>
        <mxCell id="R70TE0VwY-J-NcMuHkIn-1101" value="&lt;font color=&quot;#eeece1&quot;&gt;4&lt;/font&gt;" style="text;html=1;resizable=0;points=[];autosize=1;align=left;verticalAlign=top;spacingTop=-4;fontSize=100;fontFamily=Verdana;fontColor=#F18808;fontStyle=1" vertex="1" parent="1">
          <mxGeometry x="1809" y="-184" width="90" height="130" as="geometry" />
        </mxCell>
        <mxCell id="R70TE0VwY-J-NcMuHkIn-1103" value="&lt;font color=&quot;#9bbb59&quot;&gt;TESTS PASS OR&lt;br&gt;FAIL&lt;br&gt;&lt;/font&gt;" style="text;html=1;resizable=0;points=[];autosize=1;align=left;verticalAlign=top;spacingTop=-4;fontSize=24;fontFamily=Verdana;fontColor=#DDDDDD;fontStyle=1" vertex="1" parent="1">
          <mxGeometry x="1559" y="-339" width="230" height="70" as="geometry" />
        </mxCell>
        <mxCell id="R70TE0VwY-J-NcMuHkIn-1104" value="&lt;div style=&quot;line-height: 150%&quot;&gt;&lt;font color=&quot;#9bbb59&quot;&gt;PEER REVIEW&lt;/font&gt;&lt;/div&gt;" style="text;html=1;resizable=0;points=[];autosize=1;align=left;verticalAlign=top;spacingTop=-4;fontSize=24;fontFamily=Verdana;fontColor=#DDDDDD;fontStyle=1" vertex="1" parent="1">
          <mxGeometry x="1885" y="-111" width="210" height="40" as="geometry" />
        </mxCell>
        <mxCell id="R70TE0VwY-J-NcMuHkIn-1107" value="&lt;font color=&quot;#eeece1&quot;&gt;The status of the CI tests is&lt;br&gt;shown on the PR.&lt;br&gt;&lt;/font&gt;" style="text;html=1;resizable=0;points=[];autosize=1;align=left;verticalAlign=top;spacingTop=-4;fontSize=16;fontColor=#888888;fontFamily=Verdana;" vertex="1" parent="1">
          <mxGeometry x="1559" y="-269" width="250" height="50" as="geometry" />
        </mxCell>
        <mxCell id="R70TE0VwY-J-NcMuHkIn-1108" value="&lt;font color=&quot;#eeece1&quot;&gt;Reviewer(s) with knowledge of&amp;nbsp;&lt;br&gt;code review request changes&lt;br&gt;or approve the code.&lt;br&gt;&lt;/font&gt;" style="text;html=1;resizable=0;points=[];autosize=1;align=left;verticalAlign=top;spacingTop=-4;fontSize=16;fontColor=#888888;fontFamily=Verdana;" vertex="1" parent="1">
          <mxGeometry x="1888" y="-64" width="280" height="70" as="geometry" />
        </mxCell>
        <mxCell id="R70TE0VwY-J-NcMuHkIn-1111" value="" style="endArrow=none;html=1;strokeColor=#EEECE1;fontFamily=Verdana;fontSize=16;fontColor=#DDDDDD;endFill=0;rounded=1;endSize=6;startArrow=none;startFill=0;strokeWidth=2;dashed=1;dashPattern=1 1;" edge="1" parent="1">
          <mxGeometry x="1516" y="-210" width="50" height="50" as="geometry">
            <mxPoint x="1683" y="-60" as="sourcePoint" />
            <mxPoint x="1754" y="-186" as="targetPoint" />
            <Array as="points">
              <mxPoint x="1683" y="-186" />
            </Array>
          </mxGeometry>
        </mxCell>
        <mxCell id="R70TE0VwY-J-NcMuHkIn-1112" value="" style="endArrow=oval;html=1;strokeColor=#EEECE1;fontFamily=Verdana;fontSize=16;fontColor=#DDDDDD;endFill=1;rounded=1;endSize=6;startArrow=oval;startFill=1;strokeWidth=2;movable=1;resizable=1;rotatable=1;deletable=1;editable=1;connectable=1;" edge="1" parent="1">
          <mxGeometry width="50" height="50" relative="1" as="geometry">
            <mxPoint x="1778" y="-4" as="sourcePoint" />
            <mxPoint x="1855" y="-235" as="targetPoint" />
            <Array as="points">
              <mxPoint x="1691" y="-4" />
              <mxPoint x="1691" y="-179" />
              <mxPoint x="1855" y="-179" />
            </Array>
          </mxGeometry>
        </mxCell>
        <mxCell id="R70TE0VwY-J-NcMuHkIn-1113" value="" style="group" vertex="1" connectable="0" parent="1">
          <mxGeometry x="1822" y="-321" width="66" height="66" as="geometry" />
        </mxCell>
        <mxCell id="R70TE0VwY-J-NcMuHkIn-1114" value="" style="ellipse;whiteSpace=wrap;html=1;fillColor=none;fontFamily=Verdana;fontSize=16;fontColor=#DDDDDD;strokeColor=#EEECE1;strokeWidth=2;" vertex="1" parent="R70TE0VwY-J-NcMuHkIn-1113">
          <mxGeometry width="66" height="66" as="geometry" />
        </mxCell>
        <mxCell id="R70TE0VwY-J-NcMuHkIn-1115" value="" style="ellipse;whiteSpace=wrap;html=1;fillColor=#EEECE1;fontFamily=Verdana;fontSize=16;fontColor=#DDDDDD;strokeColor=none;" vertex="1" parent="R70TE0VwY-J-NcMuHkIn-1113">
          <mxGeometry x="4" y="4" width="58" height="58" as="geometry" />
        </mxCell>
        <mxCell id="R70TE0VwY-J-NcMuHkIn-1116" value="" style="shape=image;html=1;verticalAlign=top;verticalLabelPosition=bottom;labelBackgroundColor=#ffffff;imageAspect=0;aspect=fixed;image=https://cdn4.iconfinder.com/data/icons/ionicons/512/icon-social-github-128.png" vertex="1" parent="R70TE0VwY-J-NcMuHkIn-1113">
          <mxGeometry x="10" y="10" width="46" height="46" as="geometry" />
        </mxCell>
        <mxCell id="R70TE0VwY-J-NcMuHkIn-1117" value="" style="group" vertex="1" connectable="0" parent="1">
          <mxGeometry x="1793" y="-37" width="66" height="66" as="geometry" />
        </mxCell>
        <mxCell id="R70TE0VwY-J-NcMuHkIn-1118" value="" style="ellipse;whiteSpace=wrap;html=1;fillColor=none;fontFamily=Verdana;fontSize=16;fontColor=#DDDDDD;strokeColor=#EEECE1;strokeWidth=2;" vertex="1" parent="R70TE0VwY-J-NcMuHkIn-1117">
          <mxGeometry width="66" height="66" as="geometry" />
        </mxCell>
        <mxCell id="R70TE0VwY-J-NcMuHkIn-1119" value="" style="ellipse;whiteSpace=wrap;html=1;fillColor=#EEECE1;fontFamily=Verdana;fontSize=16;fontColor=#DDDDDD;strokeColor=none;" vertex="1" parent="R70TE0VwY-J-NcMuHkIn-1117">
          <mxGeometry x="4" y="4" width="58" height="58" as="geometry" />
        </mxCell>
        <mxCell id="R70TE0VwY-J-NcMuHkIn-1120" value="" style="sketch=0;pointerEvents=1;shadow=0;dashed=0;html=1;strokeColor=none;fillColor=#000000;labelPosition=center;verticalLabelPosition=bottom;verticalAlign=top;outlineConnect=0;align=center;shape=mxgraph.office.users.approver;aspect=fixed;" vertex="1" parent="R70TE0VwY-J-NcMuHkIn-1117">
          <mxGeometry x="15.75" y="16.919999999999998" width="34.5" height="32.16" as="geometry" />
        </mxCell>
        <mxCell id="R70TE0VwY-J-NcMuHkIn-1121" value="&lt;font color=&quot;#eeece1&quot;&gt;&lt;br&gt;&lt;/font&gt;" style="text;html=1;resizable=0;points=[];autosize=1;align=left;verticalAlign=top;spacingTop=-4;fontSize=16;fontColor=#888888;fontFamily=Verdana;" vertex="1" parent="1">
          <mxGeometry x="1559" y="-224" width="20" height="30" as="geometry" />
        </mxCell>
        <mxCell id="R70TE0VwY-J-NcMuHkIn-1122" value="&lt;font color=&quot;#eeece1&quot;&gt;If changes are made, the CI&amp;nbsp;&lt;br&gt;tests will re-trigger.&lt;br&gt;&lt;/font&gt;" style="text;html=1;resizable=0;points=[];autosize=1;align=left;verticalAlign=top;spacingTop=-4;fontSize=16;fontColor=#888888;fontFamily=Verdana;" vertex="1" parent="1">
          <mxGeometry x="1885" y="6" width="260" height="50" as="geometry" />
        </mxCell>
        <mxCell id="R70TE0VwY-J-NcMuHkIn-1123" value="" style="ellipse;whiteSpace=wrap;html=1;fontFamily=Verdana;fontSize=16;fontColor=#DDDDDD;strokeColor=none;fillColor=#1F497D;" vertex="1" parent="1">
          <mxGeometry x="2142" y="-450" width="350" height="350" as="geometry" />
        </mxCell>
        <mxCell id="R70TE0VwY-J-NcMuHkIn-1124" value="&lt;font color=&quot;#eeece1&quot;&gt;5&lt;/font&gt;" style="text;html=1;resizable=0;points=[];autosize=1;align=left;verticalAlign=top;spacingTop=-4;fontSize=100;fontFamily=Verdana;fontColor=#F18808;fontStyle=1" vertex="1" parent="1">
          <mxGeometry x="2120" y="-445" width="90" height="130" as="geometry" />
        </mxCell>
        <mxCell id="R70TE0VwY-J-NcMuHkIn-1125" value="&lt;div style=&quot;line-height: 150%&quot;&gt;&lt;font color=&quot;#9bbb59&quot;&gt;CODE IS MERGED&lt;/font&gt;&lt;/div&gt;" style="text;html=1;resizable=0;points=[];autosize=1;align=left;verticalAlign=top;spacingTop=-4;fontSize=24;fontFamily=Verdana;fontColor=#DDDDDD;fontStyle=1" vertex="1" parent="1">
          <mxGeometry x="2195" y="-372" width="260" height="40" as="geometry" />
        </mxCell>
        <mxCell id="R70TE0VwY-J-NcMuHkIn-1126" value="&lt;font color=&quot;#eeece1&quot;&gt;Once approved by the reviewer(s),&lt;br&gt;a code manager will merge the&lt;br&gt;PR.&amp;nbsp;&lt;br&gt;&lt;/font&gt;" style="text;html=1;resizable=0;points=[];autosize=1;align=left;verticalAlign=top;spacingTop=-4;fontSize=16;fontColor=#888888;fontFamily=Verdana;" vertex="1" parent="1">
          <mxGeometry x="2195" y="-326" width="300" height="70" as="geometry" />
        </mxCell>
        <mxCell id="R70TE0VwY-J-NcMuHkIn-1129" value="" style="group" vertex="1" connectable="0" parent="1">
          <mxGeometry x="2100" y="-298.5" width="66" height="66" as="geometry" />
        </mxCell>
        <mxCell id="R70TE0VwY-J-NcMuHkIn-1130" value="" style="ellipse;whiteSpace=wrap;html=1;fillColor=none;fontFamily=Verdana;fontSize=16;fontColor=#DDDDDD;strokeColor=#EEECE1;strokeWidth=2;" vertex="1" parent="R70TE0VwY-J-NcMuHkIn-1129">
          <mxGeometry width="66" height="66" as="geometry" />
        </mxCell>
        <mxCell id="R70TE0VwY-J-NcMuHkIn-1131" value="" style="ellipse;whiteSpace=wrap;html=1;fillColor=#EEECE1;fontFamily=Verdana;fontSize=16;fontColor=#DDDDDD;strokeColor=none;" vertex="1" parent="R70TE0VwY-J-NcMuHkIn-1129">
          <mxGeometry x="4" y="4" width="58" height="58" as="geometry" />
        </mxCell>
        <mxCell id="R70TE0VwY-J-NcMuHkIn-1132" value="" style="shape=image;html=1;verticalAlign=top;verticalLabelPosition=bottom;labelBackgroundColor=#ffffff;imageAspect=0;aspect=fixed;image=https://cdn0.iconfinder.com/data/icons/phosphor-regular-vol-3/256/git-merge-128.png;fillColor=#000000;" vertex="1" parent="R70TE0VwY-J-NcMuHkIn-1129">
          <mxGeometry x="11.5" y="7.75" width="50.5" height="50.5" as="geometry" />
        </mxCell>
        <mxCell id="R70TE0VwY-J-NcMuHkIn-1141" value="" style="orthogonalLoop=1;jettySize=auto;html=1;rounded=1;strokeColor=#EEECE1;fontColor=#9BBB59;endArrow=oval;endFill=1;startArrow=oval;startFill=1;strokeWidth=2;" edge="1" parent="1">
          <mxGeometry width="80" relative="1" as="geometry">
            <mxPoint x="1440" y="-210" as="sourcePoint" />
            <mxPoint x="1480" y="-330" as="targetPoint" />
            <Array as="points">
              <mxPoint x="1440" y="-330" />
            </Array>
          </mxGeometry>
        </mxCell>
        <mxCell id="R70TE0VwY-J-NcMuHkIn-1143" value="" style="edgeStyle=none;orthogonalLoop=1;jettySize=auto;html=1;rounded=1;strokeColor=#EEECE1;strokeWidth=2;fontColor=#9BBB59;startArrow=none;startFill=0;endArrow=none;endFill=0;dashed=1;dashPattern=1 1;" edge="1" parent="1">
          <mxGeometry width="80" relative="1" as="geometry">
            <mxPoint x="1450" y="-305" as="sourcePoint" />
            <mxPoint x="1450" y="-245" as="targetPoint" />
            <Array as="points" />
          </mxGeometry>
        </mxCell>
        <mxCell id="R70TE0VwY-J-NcMuHkIn-1149" value="" style="edgeStyle=orthogonalEdgeStyle;orthogonalLoop=1;jettySize=auto;html=1;rounded=1;strokeColor=#EEECE1;strokeWidth=2;fontColor=#9BBB59;startArrow=oval;startFill=1;endArrow=oval;endFill=1;jumpSize=2;" edge="1" parent="1">
          <mxGeometry width="80" relative="1" as="geometry">
            <mxPoint x="2200" y="-39.43" as="sourcePoint" />
            <mxPoint x="2090" y="-270" as="targetPoint" />
            <Array as="points">
              <mxPoint x="2240" y="-39" />
              <mxPoint x="2240" y="-210" />
              <mxPoint x="2010" y="-210" />
              <mxPoint x="2010" y="-270" />
            </Array>
          </mxGeometry>
        </mxCell>
        <mxCell id="R70TE0VwY-J-NcMuHkIn-1150" value="" style="edgeStyle=orthogonalEdgeStyle;orthogonalLoop=1;jettySize=auto;html=1;rounded=1;strokeColor=#EEECE1;strokeWidth=2;fontColor=#9BBB59;startArrow=none;startFill=0;endArrow=none;endFill=0;jumpSize=2;dashed=1;dashPattern=1 1;" edge="1" parent="1">
          <mxGeometry width="80" relative="1" as="geometry">
            <mxPoint x="2080" y="-220" as="sourcePoint" />
            <mxPoint x="2250" y="-80" as="targetPoint" />
            <Array as="points">
              <mxPoint x="2250" y="-220" />
            </Array>
          </mxGeometry>
        </mxCell>
      </root>
    </mxGraphModel>
  </diagram>
</mxfile>
